%TF.GenerationSoftware,KiCad,Pcbnew,(5.1.9)-1*%
%TF.CreationDate,2021-08-06T17:42:55+02:00*%
%TF.ProjectId,Solenoid pulser,536f6c65-6e6f-4696-9420-70756c736572,V1.0*%
%TF.SameCoordinates,Original*%
%TF.FileFunction,Copper,L2,Bot*%
%TF.FilePolarity,Positive*%
%FSLAX46Y46*%
G04 Gerber Fmt 4.6, Leading zero omitted, Abs format (unit mm)*
G04 Created by KiCad (PCBNEW (5.1.9)-1) date 2021-08-06 17:42:55*
%MOMM*%
%LPD*%
G01*
G04 APERTURE LIST*
%TA.AperFunction,EtchedComponent*%
%ADD10C,0.010000*%
%TD*%
%TA.AperFunction,ComponentPad*%
%ADD11O,1.600000X1.600000*%
%TD*%
%TA.AperFunction,ComponentPad*%
%ADD12C,1.600000*%
%TD*%
%TA.AperFunction,ComponentPad*%
%ADD13O,2.200000X2.200000*%
%TD*%
%TA.AperFunction,ComponentPad*%
%ADD14R,2.200000X2.200000*%
%TD*%
%TA.AperFunction,ComponentPad*%
%ADD15O,1.905000X2.000000*%
%TD*%
%TA.AperFunction,ComponentPad*%
%ADD16R,1.905000X2.000000*%
%TD*%
%TA.AperFunction,ComponentPad*%
%ADD17C,0.800000*%
%TD*%
%TA.AperFunction,ComponentPad*%
%ADD18C,6.400000*%
%TD*%
%TA.AperFunction,ComponentPad*%
%ADD19C,2.010000*%
%TD*%
%TA.AperFunction,ComponentPad*%
%ADD20C,3.000000*%
%TD*%
%TA.AperFunction,ComponentPad*%
%ADD21R,3.000000X3.000000*%
%TD*%
%TA.AperFunction,ComponentPad*%
%ADD22R,1.600000X1.600000*%
%TD*%
%TA.AperFunction,ComponentPad*%
%ADD23C,2.000000*%
%TD*%
%TA.AperFunction,ComponentPad*%
%ADD24C,1.800000*%
%TD*%
%TA.AperFunction,ComponentPad*%
%ADD25R,1.800000X1.800000*%
%TD*%
%TA.AperFunction,ComponentPad*%
%ADD26R,2.000000X2.000000*%
%TD*%
%TA.AperFunction,ComponentPad*%
%ADD27C,1.200000*%
%TD*%
%TA.AperFunction,ComponentPad*%
%ADD28R,1.200000X1.200000*%
%TD*%
%TA.AperFunction,Conductor*%
%ADD29C,1.000000*%
%TD*%
G04 APERTURE END LIST*
D10*
G36*
X108664186Y-92718931D02*
G01*
X108580365Y-93163555D01*
X108271080Y-93291053D01*
X107961794Y-93418551D01*
X107590754Y-93166246D01*
X107486843Y-93095996D01*
X107392913Y-93033272D01*
X107313348Y-92980938D01*
X107252530Y-92941857D01*
X107214843Y-92918893D01*
X107204579Y-92913942D01*
X107186090Y-92926676D01*
X107146580Y-92961882D01*
X107090478Y-93015062D01*
X107022213Y-93081718D01*
X106946214Y-93157354D01*
X106866908Y-93237472D01*
X106788725Y-93317574D01*
X106716093Y-93393164D01*
X106653441Y-93459745D01*
X106605197Y-93512818D01*
X106575790Y-93547887D01*
X106568759Y-93559623D01*
X106578877Y-93581260D01*
X106607241Y-93628662D01*
X106650871Y-93697193D01*
X106706782Y-93782215D01*
X106771994Y-93879093D01*
X106809781Y-93934350D01*
X106878657Y-94035248D01*
X106939860Y-94126299D01*
X106990422Y-94202970D01*
X107027372Y-94260728D01*
X107047742Y-94295043D01*
X107050803Y-94302254D01*
X107043864Y-94322748D01*
X107024949Y-94370513D01*
X106996913Y-94438832D01*
X106962609Y-94520989D01*
X106924891Y-94610270D01*
X106886613Y-94699958D01*
X106850630Y-94783338D01*
X106819794Y-94853694D01*
X106796961Y-94904310D01*
X106784983Y-94928471D01*
X106784276Y-94929422D01*
X106765469Y-94934036D01*
X106715382Y-94944328D01*
X106639207Y-94959287D01*
X106542135Y-94977901D01*
X106429357Y-94999159D01*
X106363558Y-95011418D01*
X106243050Y-95034362D01*
X106134203Y-95056195D01*
X106042524Y-95075722D01*
X105973519Y-95091748D01*
X105932696Y-95103079D01*
X105924489Y-95106674D01*
X105916452Y-95131006D01*
X105909967Y-95185959D01*
X105905030Y-95265108D01*
X105901636Y-95362026D01*
X105899782Y-95470287D01*
X105899462Y-95583465D01*
X105900673Y-95695135D01*
X105903410Y-95798868D01*
X105907669Y-95888241D01*
X105913445Y-95956826D01*
X105920733Y-95998197D01*
X105925105Y-96006810D01*
X105951236Y-96017133D01*
X106006607Y-96031892D01*
X106083893Y-96049352D01*
X106175770Y-96067780D01*
X106207842Y-96073741D01*
X106362476Y-96102066D01*
X106484625Y-96124876D01*
X106578327Y-96143080D01*
X106647616Y-96157583D01*
X106696529Y-96169292D01*
X106729103Y-96179115D01*
X106749372Y-96187956D01*
X106761374Y-96196724D01*
X106763053Y-96198457D01*
X106779816Y-96226371D01*
X106805386Y-96280695D01*
X106837212Y-96354777D01*
X106872740Y-96441965D01*
X106909417Y-96535608D01*
X106944689Y-96629052D01*
X106976004Y-96715647D01*
X107000807Y-96788740D01*
X107016546Y-96841678D01*
X107020668Y-96867811D01*
X107020324Y-96868726D01*
X107006359Y-96890086D01*
X106974678Y-96937084D01*
X106928609Y-97004827D01*
X106871482Y-97088423D01*
X106806627Y-97182982D01*
X106788157Y-97209854D01*
X106722301Y-97307275D01*
X106664350Y-97396163D01*
X106617462Y-97471412D01*
X106584793Y-97527920D01*
X106569500Y-97560581D01*
X106568759Y-97564593D01*
X106581608Y-97585684D01*
X106617112Y-97627464D01*
X106670707Y-97685445D01*
X106737829Y-97755135D01*
X106813913Y-97832045D01*
X106894396Y-97911683D01*
X106974713Y-97989561D01*
X107050301Y-98061186D01*
X107116595Y-98122070D01*
X107169031Y-98167721D01*
X107203045Y-98193650D01*
X107212455Y-98197883D01*
X107234357Y-98187912D01*
X107279200Y-98161020D01*
X107339679Y-98121736D01*
X107386211Y-98090117D01*
X107470525Y-98032098D01*
X107570374Y-97963784D01*
X107670527Y-97895579D01*
X107724373Y-97859075D01*
X107906629Y-97735800D01*
X108059619Y-97818520D01*
X108129318Y-97854759D01*
X108188586Y-97882926D01*
X108228689Y-97898991D01*
X108238897Y-97901226D01*
X108251171Y-97884722D01*
X108275387Y-97838082D01*
X108309737Y-97765609D01*
X108352412Y-97671606D01*
X108401606Y-97560374D01*
X108455510Y-97436215D01*
X108512316Y-97303432D01*
X108570218Y-97166327D01*
X108627407Y-97029202D01*
X108682076Y-96896358D01*
X108732416Y-96772098D01*
X108776620Y-96660725D01*
X108812881Y-96566539D01*
X108839391Y-96493844D01*
X108854342Y-96446941D01*
X108856746Y-96430833D01*
X108837689Y-96410286D01*
X108795964Y-96376933D01*
X108740294Y-96337702D01*
X108735622Y-96334599D01*
X108591736Y-96219423D01*
X108475717Y-96085053D01*
X108388570Y-95935784D01*
X108331301Y-95775913D01*
X108304914Y-95609737D01*
X108310415Y-95441552D01*
X108348810Y-95275655D01*
X108421105Y-95116342D01*
X108442374Y-95081487D01*
X108553004Y-94940737D01*
X108683698Y-94827714D01*
X108829936Y-94743003D01*
X108987192Y-94687194D01*
X109150943Y-94660874D01*
X109316667Y-94664630D01*
X109479838Y-94699050D01*
X109635935Y-94764723D01*
X109780433Y-94862235D01*
X109825131Y-94901813D01*
X109938888Y-95025703D01*
X110021782Y-95156124D01*
X110078644Y-95302315D01*
X110110313Y-95447088D01*
X110118131Y-95609860D01*
X110092062Y-95773440D01*
X110034755Y-95932298D01*
X109948856Y-96080906D01*
X109837014Y-96213735D01*
X109701877Y-96325256D01*
X109684117Y-96337011D01*
X109627850Y-96375508D01*
X109585077Y-96408863D01*
X109564628Y-96430160D01*
X109564331Y-96430833D01*
X109568721Y-96453871D01*
X109586124Y-96506157D01*
X109614732Y-96583390D01*
X109652735Y-96681268D01*
X109698326Y-96795491D01*
X109749697Y-96921758D01*
X109805038Y-97055767D01*
X109862542Y-97193218D01*
X109920399Y-97329808D01*
X109976802Y-97461237D01*
X110029942Y-97583205D01*
X110078010Y-97691409D01*
X110119199Y-97781549D01*
X110151699Y-97849323D01*
X110173703Y-97890430D01*
X110182564Y-97901226D01*
X110209640Y-97892819D01*
X110260303Y-97870272D01*
X110325817Y-97837613D01*
X110361841Y-97818520D01*
X110514832Y-97735800D01*
X110697088Y-97859075D01*
X110790125Y-97922228D01*
X110891985Y-97991727D01*
X110987438Y-98057165D01*
X111035250Y-98090117D01*
X111102495Y-98135273D01*
X111159436Y-98171057D01*
X111198646Y-98192938D01*
X111211381Y-98197563D01*
X111229917Y-98185085D01*
X111270941Y-98150252D01*
X111330475Y-98096678D01*
X111404542Y-98027983D01*
X111489165Y-97947781D01*
X111542685Y-97896286D01*
X111636319Y-97804286D01*
X111717241Y-97721999D01*
X111782177Y-97652945D01*
X111827858Y-97600644D01*
X111851011Y-97568616D01*
X111853232Y-97562116D01*
X111842924Y-97537394D01*
X111814439Y-97487405D01*
X111770937Y-97417212D01*
X111715577Y-97331875D01*
X111651520Y-97236456D01*
X111633303Y-97209854D01*
X111566927Y-97113167D01*
X111507378Y-97026117D01*
X111457984Y-96953595D01*
X111422075Y-96900493D01*
X111402981Y-96871703D01*
X111401136Y-96868726D01*
X111403895Y-96845782D01*
X111418538Y-96795336D01*
X111442513Y-96724041D01*
X111473266Y-96638547D01*
X111508244Y-96545507D01*
X111544893Y-96451574D01*
X111580661Y-96363399D01*
X111612994Y-96287634D01*
X111639338Y-96230931D01*
X111657142Y-96199943D01*
X111658407Y-96198457D01*
X111669294Y-96189601D01*
X111687682Y-96180843D01*
X111717606Y-96171277D01*
X111763103Y-96159996D01*
X111828209Y-96146093D01*
X111916961Y-96128663D01*
X112033393Y-96106798D01*
X112181542Y-96079591D01*
X112213618Y-96073741D01*
X112308686Y-96055374D01*
X112391565Y-96037405D01*
X112454930Y-96021569D01*
X112491458Y-96009600D01*
X112496356Y-96006810D01*
X112504427Y-95982072D01*
X112510987Y-95926790D01*
X112516033Y-95847389D01*
X112519559Y-95750296D01*
X112521561Y-95641938D01*
X112522036Y-95528740D01*
X112520977Y-95417128D01*
X112518382Y-95313529D01*
X112514246Y-95224368D01*
X112508563Y-95156072D01*
X112501331Y-95115066D01*
X112496971Y-95106674D01*
X112472698Y-95098208D01*
X112417426Y-95084435D01*
X112336662Y-95066550D01*
X112235912Y-95045748D01*
X112120683Y-95023223D01*
X112057902Y-95011418D01*
X111938787Y-94989151D01*
X111832565Y-94968979D01*
X111744427Y-94951915D01*
X111679566Y-94938969D01*
X111643174Y-94931155D01*
X111637184Y-94929422D01*
X111627061Y-94909890D01*
X111605662Y-94862843D01*
X111575839Y-94795003D01*
X111540445Y-94713091D01*
X111502332Y-94623828D01*
X111464353Y-94533935D01*
X111429360Y-94450135D01*
X111400206Y-94379147D01*
X111379743Y-94327694D01*
X111370823Y-94302497D01*
X111370657Y-94301396D01*
X111380769Y-94281519D01*
X111409117Y-94235777D01*
X111452723Y-94168717D01*
X111508606Y-94084884D01*
X111573787Y-93988826D01*
X111611679Y-93933650D01*
X111680725Y-93832481D01*
X111742050Y-93740630D01*
X111792663Y-93662744D01*
X111829571Y-93603469D01*
X111849782Y-93567451D01*
X111852701Y-93559377D01*
X111840153Y-93540584D01*
X111805463Y-93500457D01*
X111753063Y-93443493D01*
X111687384Y-93374185D01*
X111612856Y-93297031D01*
X111533913Y-93216525D01*
X111454983Y-93137163D01*
X111380500Y-93063440D01*
X111314894Y-92999852D01*
X111262596Y-92950894D01*
X111228039Y-92921061D01*
X111216478Y-92913942D01*
X111197654Y-92923953D01*
X111152631Y-92952078D01*
X111085787Y-92995454D01*
X111001499Y-93051218D01*
X110904144Y-93116506D01*
X110830707Y-93166246D01*
X110459667Y-93418551D01*
X109841095Y-93163555D01*
X109757275Y-92718931D01*
X109673454Y-92274307D01*
X108748006Y-92274307D01*
X108664186Y-92718931D01*
G37*
X108664186Y-92718931D02*
X108580365Y-93163555D01*
X108271080Y-93291053D01*
X107961794Y-93418551D01*
X107590754Y-93166246D01*
X107486843Y-93095996D01*
X107392913Y-93033272D01*
X107313348Y-92980938D01*
X107252530Y-92941857D01*
X107214843Y-92918893D01*
X107204579Y-92913942D01*
X107186090Y-92926676D01*
X107146580Y-92961882D01*
X107090478Y-93015062D01*
X107022213Y-93081718D01*
X106946214Y-93157354D01*
X106866908Y-93237472D01*
X106788725Y-93317574D01*
X106716093Y-93393164D01*
X106653441Y-93459745D01*
X106605197Y-93512818D01*
X106575790Y-93547887D01*
X106568759Y-93559623D01*
X106578877Y-93581260D01*
X106607241Y-93628662D01*
X106650871Y-93697193D01*
X106706782Y-93782215D01*
X106771994Y-93879093D01*
X106809781Y-93934350D01*
X106878657Y-94035248D01*
X106939860Y-94126299D01*
X106990422Y-94202970D01*
X107027372Y-94260728D01*
X107047742Y-94295043D01*
X107050803Y-94302254D01*
X107043864Y-94322748D01*
X107024949Y-94370513D01*
X106996913Y-94438832D01*
X106962609Y-94520989D01*
X106924891Y-94610270D01*
X106886613Y-94699958D01*
X106850630Y-94783338D01*
X106819794Y-94853694D01*
X106796961Y-94904310D01*
X106784983Y-94928471D01*
X106784276Y-94929422D01*
X106765469Y-94934036D01*
X106715382Y-94944328D01*
X106639207Y-94959287D01*
X106542135Y-94977901D01*
X106429357Y-94999159D01*
X106363558Y-95011418D01*
X106243050Y-95034362D01*
X106134203Y-95056195D01*
X106042524Y-95075722D01*
X105973519Y-95091748D01*
X105932696Y-95103079D01*
X105924489Y-95106674D01*
X105916452Y-95131006D01*
X105909967Y-95185959D01*
X105905030Y-95265108D01*
X105901636Y-95362026D01*
X105899782Y-95470287D01*
X105899462Y-95583465D01*
X105900673Y-95695135D01*
X105903410Y-95798868D01*
X105907669Y-95888241D01*
X105913445Y-95956826D01*
X105920733Y-95998197D01*
X105925105Y-96006810D01*
X105951236Y-96017133D01*
X106006607Y-96031892D01*
X106083893Y-96049352D01*
X106175770Y-96067780D01*
X106207842Y-96073741D01*
X106362476Y-96102066D01*
X106484625Y-96124876D01*
X106578327Y-96143080D01*
X106647616Y-96157583D01*
X106696529Y-96169292D01*
X106729103Y-96179115D01*
X106749372Y-96187956D01*
X106761374Y-96196724D01*
X106763053Y-96198457D01*
X106779816Y-96226371D01*
X106805386Y-96280695D01*
X106837212Y-96354777D01*
X106872740Y-96441965D01*
X106909417Y-96535608D01*
X106944689Y-96629052D01*
X106976004Y-96715647D01*
X107000807Y-96788740D01*
X107016546Y-96841678D01*
X107020668Y-96867811D01*
X107020324Y-96868726D01*
X107006359Y-96890086D01*
X106974678Y-96937084D01*
X106928609Y-97004827D01*
X106871482Y-97088423D01*
X106806627Y-97182982D01*
X106788157Y-97209854D01*
X106722301Y-97307275D01*
X106664350Y-97396163D01*
X106617462Y-97471412D01*
X106584793Y-97527920D01*
X106569500Y-97560581D01*
X106568759Y-97564593D01*
X106581608Y-97585684D01*
X106617112Y-97627464D01*
X106670707Y-97685445D01*
X106737829Y-97755135D01*
X106813913Y-97832045D01*
X106894396Y-97911683D01*
X106974713Y-97989561D01*
X107050301Y-98061186D01*
X107116595Y-98122070D01*
X107169031Y-98167721D01*
X107203045Y-98193650D01*
X107212455Y-98197883D01*
X107234357Y-98187912D01*
X107279200Y-98161020D01*
X107339679Y-98121736D01*
X107386211Y-98090117D01*
X107470525Y-98032098D01*
X107570374Y-97963784D01*
X107670527Y-97895579D01*
X107724373Y-97859075D01*
X107906629Y-97735800D01*
X108059619Y-97818520D01*
X108129318Y-97854759D01*
X108188586Y-97882926D01*
X108228689Y-97898991D01*
X108238897Y-97901226D01*
X108251171Y-97884722D01*
X108275387Y-97838082D01*
X108309737Y-97765609D01*
X108352412Y-97671606D01*
X108401606Y-97560374D01*
X108455510Y-97436215D01*
X108512316Y-97303432D01*
X108570218Y-97166327D01*
X108627407Y-97029202D01*
X108682076Y-96896358D01*
X108732416Y-96772098D01*
X108776620Y-96660725D01*
X108812881Y-96566539D01*
X108839391Y-96493844D01*
X108854342Y-96446941D01*
X108856746Y-96430833D01*
X108837689Y-96410286D01*
X108795964Y-96376933D01*
X108740294Y-96337702D01*
X108735622Y-96334599D01*
X108591736Y-96219423D01*
X108475717Y-96085053D01*
X108388570Y-95935784D01*
X108331301Y-95775913D01*
X108304914Y-95609737D01*
X108310415Y-95441552D01*
X108348810Y-95275655D01*
X108421105Y-95116342D01*
X108442374Y-95081487D01*
X108553004Y-94940737D01*
X108683698Y-94827714D01*
X108829936Y-94743003D01*
X108987192Y-94687194D01*
X109150943Y-94660874D01*
X109316667Y-94664630D01*
X109479838Y-94699050D01*
X109635935Y-94764723D01*
X109780433Y-94862235D01*
X109825131Y-94901813D01*
X109938888Y-95025703D01*
X110021782Y-95156124D01*
X110078644Y-95302315D01*
X110110313Y-95447088D01*
X110118131Y-95609860D01*
X110092062Y-95773440D01*
X110034755Y-95932298D01*
X109948856Y-96080906D01*
X109837014Y-96213735D01*
X109701877Y-96325256D01*
X109684117Y-96337011D01*
X109627850Y-96375508D01*
X109585077Y-96408863D01*
X109564628Y-96430160D01*
X109564331Y-96430833D01*
X109568721Y-96453871D01*
X109586124Y-96506157D01*
X109614732Y-96583390D01*
X109652735Y-96681268D01*
X109698326Y-96795491D01*
X109749697Y-96921758D01*
X109805038Y-97055767D01*
X109862542Y-97193218D01*
X109920399Y-97329808D01*
X109976802Y-97461237D01*
X110029942Y-97583205D01*
X110078010Y-97691409D01*
X110119199Y-97781549D01*
X110151699Y-97849323D01*
X110173703Y-97890430D01*
X110182564Y-97901226D01*
X110209640Y-97892819D01*
X110260303Y-97870272D01*
X110325817Y-97837613D01*
X110361841Y-97818520D01*
X110514832Y-97735800D01*
X110697088Y-97859075D01*
X110790125Y-97922228D01*
X110891985Y-97991727D01*
X110987438Y-98057165D01*
X111035250Y-98090117D01*
X111102495Y-98135273D01*
X111159436Y-98171057D01*
X111198646Y-98192938D01*
X111211381Y-98197563D01*
X111229917Y-98185085D01*
X111270941Y-98150252D01*
X111330475Y-98096678D01*
X111404542Y-98027983D01*
X111489165Y-97947781D01*
X111542685Y-97896286D01*
X111636319Y-97804286D01*
X111717241Y-97721999D01*
X111782177Y-97652945D01*
X111827858Y-97600644D01*
X111851011Y-97568616D01*
X111853232Y-97562116D01*
X111842924Y-97537394D01*
X111814439Y-97487405D01*
X111770937Y-97417212D01*
X111715577Y-97331875D01*
X111651520Y-97236456D01*
X111633303Y-97209854D01*
X111566927Y-97113167D01*
X111507378Y-97026117D01*
X111457984Y-96953595D01*
X111422075Y-96900493D01*
X111402981Y-96871703D01*
X111401136Y-96868726D01*
X111403895Y-96845782D01*
X111418538Y-96795336D01*
X111442513Y-96724041D01*
X111473266Y-96638547D01*
X111508244Y-96545507D01*
X111544893Y-96451574D01*
X111580661Y-96363399D01*
X111612994Y-96287634D01*
X111639338Y-96230931D01*
X111657142Y-96199943D01*
X111658407Y-96198457D01*
X111669294Y-96189601D01*
X111687682Y-96180843D01*
X111717606Y-96171277D01*
X111763103Y-96159996D01*
X111828209Y-96146093D01*
X111916961Y-96128663D01*
X112033393Y-96106798D01*
X112181542Y-96079591D01*
X112213618Y-96073741D01*
X112308686Y-96055374D01*
X112391565Y-96037405D01*
X112454930Y-96021569D01*
X112491458Y-96009600D01*
X112496356Y-96006810D01*
X112504427Y-95982072D01*
X112510987Y-95926790D01*
X112516033Y-95847389D01*
X112519559Y-95750296D01*
X112521561Y-95641938D01*
X112522036Y-95528740D01*
X112520977Y-95417128D01*
X112518382Y-95313529D01*
X112514246Y-95224368D01*
X112508563Y-95156072D01*
X112501331Y-95115066D01*
X112496971Y-95106674D01*
X112472698Y-95098208D01*
X112417426Y-95084435D01*
X112336662Y-95066550D01*
X112235912Y-95045748D01*
X112120683Y-95023223D01*
X112057902Y-95011418D01*
X111938787Y-94989151D01*
X111832565Y-94968979D01*
X111744427Y-94951915D01*
X111679566Y-94938969D01*
X111643174Y-94931155D01*
X111637184Y-94929422D01*
X111627061Y-94909890D01*
X111605662Y-94862843D01*
X111575839Y-94795003D01*
X111540445Y-94713091D01*
X111502332Y-94623828D01*
X111464353Y-94533935D01*
X111429360Y-94450135D01*
X111400206Y-94379147D01*
X111379743Y-94327694D01*
X111370823Y-94302497D01*
X111370657Y-94301396D01*
X111380769Y-94281519D01*
X111409117Y-94235777D01*
X111452723Y-94168717D01*
X111508606Y-94084884D01*
X111573787Y-93988826D01*
X111611679Y-93933650D01*
X111680725Y-93832481D01*
X111742050Y-93740630D01*
X111792663Y-93662744D01*
X111829571Y-93603469D01*
X111849782Y-93567451D01*
X111852701Y-93559377D01*
X111840153Y-93540584D01*
X111805463Y-93500457D01*
X111753063Y-93443493D01*
X111687384Y-93374185D01*
X111612856Y-93297031D01*
X111533913Y-93216525D01*
X111454983Y-93137163D01*
X111380500Y-93063440D01*
X111314894Y-92999852D01*
X111262596Y-92950894D01*
X111228039Y-92921061D01*
X111216478Y-92913942D01*
X111197654Y-92923953D01*
X111152631Y-92952078D01*
X111085787Y-92995454D01*
X111001499Y-93051218D01*
X110904144Y-93116506D01*
X110830707Y-93166246D01*
X110459667Y-93418551D01*
X109841095Y-93163555D01*
X109757275Y-92718931D01*
X109673454Y-92274307D01*
X108748006Y-92274307D01*
X108664186Y-92718931D01*
D11*
X121920000Y-54610000D03*
D12*
X116840000Y-54610000D03*
D11*
X121920000Y-59690000D03*
D12*
X116840000Y-59690000D03*
D11*
X96520000Y-54610000D03*
D12*
X101600000Y-54610000D03*
D11*
X96520000Y-59690000D03*
D12*
X101600000Y-59690000D03*
D11*
X111760000Y-54610000D03*
D12*
X106680000Y-54610000D03*
D11*
X121920000Y-76200000D03*
D12*
X121920000Y-81280000D03*
D13*
X116840000Y-81280000D03*
D14*
X116840000Y-76200000D03*
D13*
X101600000Y-81280000D03*
D14*
X101600000Y-76200000D03*
D15*
X106680000Y-69850000D03*
X109220000Y-69850000D03*
D16*
X111760000Y-69850000D03*
D17*
X117682944Y-46562944D03*
X116980000Y-48260000D03*
X117682944Y-49957056D03*
X119380000Y-50660000D03*
X121077056Y-49957056D03*
X121780000Y-48260000D03*
X121077056Y-46562944D03*
X119380000Y-45860000D03*
D18*
X119380000Y-48260000D03*
D17*
X97362944Y-46562944D03*
X96660000Y-48260000D03*
X97362944Y-49957056D03*
X99060000Y-50660000D03*
X100757056Y-49957056D03*
X101460000Y-48260000D03*
X100757056Y-46562944D03*
X99060000Y-45860000D03*
D18*
X99060000Y-48260000D03*
D17*
X117682944Y-102442944D03*
X116980000Y-104140000D03*
X117682944Y-105837056D03*
X119380000Y-106540000D03*
X121077056Y-105837056D03*
X121780000Y-104140000D03*
X121077056Y-102442944D03*
X119380000Y-101740000D03*
D18*
X119380000Y-104140000D03*
D17*
X97362944Y-102442944D03*
X96660000Y-104140000D03*
X97362944Y-105837056D03*
X99060000Y-106540000D03*
X100757056Y-105837056D03*
X101460000Y-104140000D03*
X100757056Y-102442944D03*
X99060000Y-101740000D03*
D18*
X99060000Y-104140000D03*
D19*
X95955000Y-81300000D03*
X97155000Y-76200000D03*
D20*
X121920000Y-88900000D03*
D21*
X116840000Y-88900000D03*
D20*
X111760000Y-88900000D03*
D21*
X106680000Y-88900000D03*
D20*
X101600000Y-88900000D03*
D21*
X96520000Y-88900000D03*
D11*
X113030000Y-58420000D03*
X105410000Y-66040000D03*
X113030000Y-60960000D03*
X105410000Y-63500000D03*
X113030000Y-63500000D03*
X105410000Y-60960000D03*
X113030000Y-66040000D03*
D22*
X105410000Y-58420000D03*
D23*
X111470000Y-107390000D03*
X106970000Y-107390000D03*
X111470000Y-100890000D03*
X106970000Y-100890000D03*
D24*
X110490000Y-48260000D03*
D25*
X107950000Y-48260000D03*
D23*
X106760000Y-78740000D03*
D26*
X111760000Y-78740000D03*
D27*
X119380000Y-65797401D03*
D28*
X119380000Y-63797401D03*
D27*
X99060000Y-63742600D03*
D28*
X99060000Y-65742600D03*
D12*
X120610000Y-69850000D03*
X118110000Y-69850000D03*
X97830000Y-69850000D03*
X100330000Y-69850000D03*
D29*
X103124000Y-81280000D02*
X101600000Y-81280000D01*
X105664000Y-78740000D02*
X103124000Y-81280000D01*
X106760000Y-78740000D02*
X105664000Y-78740000D01*
X99060000Y-60009998D02*
X99060000Y-63742600D01*
X100879999Y-58189999D02*
X99060000Y-60009998D01*
X105179999Y-58189999D02*
X100879999Y-58189999D01*
X105410000Y-58420000D02*
X105179999Y-58189999D01*
X106680000Y-70993000D02*
X106680000Y-69850000D01*
X108077000Y-72390000D02*
X106680000Y-70993000D01*
X119507000Y-72390000D02*
X108077000Y-72390000D01*
X120610000Y-71287000D02*
X119507000Y-72390000D01*
X120610000Y-69850000D02*
X120610000Y-71287000D01*
X115697000Y-66040000D02*
X113030000Y-66040000D01*
X118110000Y-68453000D02*
X115697000Y-66040000D01*
X118110000Y-69850000D02*
X118110000Y-68453000D01*
X114300000Y-58420000D02*
X115570000Y-59690000D01*
X115570000Y-59690000D02*
X116840000Y-59690000D01*
X113030000Y-58420000D02*
X114300000Y-58420000D01*
X102362000Y-66040000D02*
X102064600Y-65742600D01*
X105410000Y-66040000D02*
X102362000Y-66040000D01*
X97155000Y-76200000D02*
X101600000Y-76200000D01*
X119126000Y-78486000D02*
X121920000Y-81280000D01*
X113284000Y-80899000D02*
X115697000Y-78486000D01*
X110363000Y-80899000D02*
X113284000Y-80899000D01*
X109474000Y-80010000D02*
X110363000Y-80899000D01*
X115697000Y-78486000D02*
X119126000Y-78486000D01*
X109474000Y-77470000D02*
X109474000Y-80010000D01*
X108204000Y-76200000D02*
X109474000Y-77470000D01*
X105410000Y-66040000D02*
X108077000Y-66040000D01*
X108077000Y-66040000D02*
X109855000Y-64262000D01*
X109855000Y-64262000D02*
X109855000Y-59436000D01*
X110871000Y-58420000D02*
X113030000Y-58420000D01*
X109855000Y-59436000D02*
X110871000Y-58420000D01*
X104521000Y-76200000D02*
X108204000Y-76200000D01*
X101600000Y-76200000D02*
X104521000Y-76200000D01*
X104521000Y-68580000D02*
X104521000Y-76200000D01*
X105410000Y-67691000D02*
X104521000Y-68580000D01*
X105410000Y-66040000D02*
X105410000Y-67691000D01*
X101600000Y-65699200D02*
X101556600Y-65742600D01*
X101600000Y-59690000D02*
X101600000Y-65699200D01*
X101556600Y-65742600D02*
X99060000Y-65742600D01*
X102064600Y-65742600D02*
X101556600Y-65742600D01*
X119380000Y-63797401D02*
X116629401Y-63797401D01*
X116332000Y-63500000D02*
X113030000Y-63500000D01*
X116629401Y-63797401D02*
X116332000Y-63500000D01*
X121920000Y-76200000D02*
X116840000Y-76200000D01*
X111760000Y-77343000D02*
X111760000Y-78740000D01*
X112903000Y-76200000D02*
X111760000Y-77343000D01*
X116840000Y-76200000D02*
X112903000Y-76200000D01*
X107950000Y-55880000D02*
X106680000Y-54610000D01*
X107950000Y-61976000D02*
X107950000Y-55880000D01*
X106426000Y-63500000D02*
X107950000Y-61976000D01*
X105410000Y-63500000D02*
X106426000Y-63500000D01*
X108585000Y-56515000D02*
X107950000Y-55880000D01*
X121412000Y-56515000D02*
X108585000Y-56515000D01*
X121920000Y-56007000D02*
X121412000Y-56515000D01*
X121920000Y-54610000D02*
X121920000Y-56007000D01*
M02*
