M48
; DRILL file {KiCad (5.1.9)-1} date 08/06/21 17:42:47
; FORMAT={-:-/ absolute / metric / decimal}
; #@! TF.CreationDate,2021-08-06T17:42:47+02:00
; #@! TF.GenerationSoftware,Kicad,Pcbnew,(5.1.9)-1
; #@! TF.FileFunction,Plated,1,2,PTH
FMAT,2
METRIC
T1C0.500
T2C0.600
T3C0.800
T4C0.900
T5C1.000
T6C1.010
T7C1.100
T8C1.520
T9C3.200
%
G90
G05
T1
X96.66Y-48.26
X96.66Y-104.14
X97.363Y-46.563
X97.363Y-49.957
X97.363Y-102.443
X97.363Y-105.837
X99.06Y-45.86
X99.06Y-50.66
X99.06Y-101.74
X99.06Y-106.54
X100.757Y-46.563
X100.757Y-49.957
X100.757Y-102.443
X100.757Y-105.837
X101.46Y-48.26
X101.46Y-104.14
X116.98Y-48.26
X116.98Y-104.14
X117.683Y-46.563
X117.683Y-49.957
X117.683Y-102.443
X117.683Y-105.837
X119.38Y-45.86
X119.38Y-50.66
X119.38Y-101.74
X119.38Y-106.54
X121.077Y-46.563
X121.077Y-49.957
X121.077Y-102.443
X121.077Y-105.837
X121.78Y-48.26
X121.78Y-104.14
T2
X99.06Y-63.743
X99.06Y-65.743
X119.38Y-63.797
X119.38Y-65.797
T3
X96.52Y-54.61
X96.52Y-59.69
X97.83Y-69.85
X100.33Y-69.85
X101.6Y-54.61
X101.6Y-59.69
X105.41Y-58.42
X105.41Y-60.96
X105.41Y-63.5
X105.41Y-66.04
X106.68Y-54.61
X111.76Y-54.61
X113.03Y-58.42
X113.03Y-60.96
X113.03Y-63.5
X113.03Y-66.04
X116.84Y-54.61
X116.84Y-59.69
X118.11Y-69.85
X120.61Y-69.85
X121.92Y-54.61
X121.92Y-59.69
X121.92Y-76.2
X121.92Y-81.28
T4
X107.95Y-48.26
X110.49Y-48.26
T5
X106.76Y-78.74
X111.76Y-78.74
T6
X95.955Y-81.3
X97.155Y-76.2
T7
X101.6Y-76.2
X101.6Y-81.28
X106.68Y-69.85
X106.97Y-100.89
X106.97Y-107.39
X109.22Y-69.85
X111.47Y-100.89
X111.47Y-107.39
X111.76Y-69.85
X116.84Y-76.2
X116.84Y-81.28
T8
X96.52Y-88.9
X101.6Y-88.9
X106.68Y-88.9
X111.76Y-88.9
X116.84Y-88.9
X121.92Y-88.9
T9
X99.06Y-48.26
X99.06Y-104.14
X119.38Y-48.26
X119.38Y-104.14
T0
M30
