%TF.GenerationSoftware,KiCad,Pcbnew,(5.1.9)-1*%
%TF.CreationDate,2021-08-06T17:42:55+02:00*%
%TF.ProjectId,Solenoid pulser,536f6c65-6e6f-4696-9420-70756c736572,V1.0*%
%TF.SameCoordinates,Original*%
%TF.FileFunction,Legend,Bot*%
%TF.FilePolarity,Positive*%
%FSLAX46Y46*%
G04 Gerber Fmt 4.6, Leading zero omitted, Abs format (unit mm)*
G04 Created by KiCad (PCBNEW (5.1.9)-1) date 2021-08-06 17:42:55*
%MOMM*%
%LPD*%
G01*
G04 APERTURE LIST*
%ADD10C,0.150000*%
%ADD11O,1.600000X1.600000*%
%ADD12C,1.600000*%
%ADD13O,2.200000X2.200000*%
%ADD14R,2.200000X2.200000*%
%ADD15O,1.905000X2.000000*%
%ADD16R,1.905000X2.000000*%
%ADD17C,0.800000*%
%ADD18C,6.400000*%
%ADD19C,2.010000*%
%ADD20C,3.000000*%
%ADD21R,3.000000X3.000000*%
%ADD22R,1.600000X1.600000*%
%ADD23C,2.000000*%
%ADD24C,1.800000*%
%ADD25R,1.800000X1.800000*%
%ADD26R,2.000000X2.000000*%
%ADD27C,1.200000*%
%ADD28R,1.200000X1.200000*%
G04 APERTURE END LIST*
D10*
X124626666Y-59326190D02*
X124626666Y-59802380D01*
X124912380Y-59230952D02*
X123912380Y-59564285D01*
X124912380Y-59897619D01*
X124245714Y-60230952D02*
X125245714Y-60230952D01*
X124293333Y-60230952D02*
X124245714Y-60326190D01*
X124245714Y-60516666D01*
X124293333Y-60611904D01*
X124340952Y-60659523D01*
X124436190Y-60707142D01*
X124721904Y-60707142D01*
X124817142Y-60659523D01*
X124864761Y-60611904D01*
X124912380Y-60516666D01*
X124912380Y-60326190D01*
X124864761Y-60230952D01*
X124912380Y-61564285D02*
X124388571Y-61564285D01*
X124293333Y-61516666D01*
X124245714Y-61421428D01*
X124245714Y-61230952D01*
X124293333Y-61135714D01*
X124864761Y-61564285D02*
X124912380Y-61469047D01*
X124912380Y-61230952D01*
X124864761Y-61135714D01*
X124769523Y-61088095D01*
X124674285Y-61088095D01*
X124579047Y-61135714D01*
X124531428Y-61230952D01*
X124531428Y-61469047D01*
X124483809Y-61564285D01*
X124864761Y-62469047D02*
X124912380Y-62373809D01*
X124912380Y-62183333D01*
X124864761Y-62088095D01*
X124817142Y-62040476D01*
X124721904Y-61992857D01*
X124436190Y-61992857D01*
X124340952Y-62040476D01*
X124293333Y-62088095D01*
X124245714Y-62183333D01*
X124245714Y-62373809D01*
X124293333Y-62469047D01*
X124912380Y-62897619D02*
X123912380Y-62897619D01*
X124912380Y-63326190D02*
X124388571Y-63326190D01*
X124293333Y-63278571D01*
X124245714Y-63183333D01*
X124245714Y-63040476D01*
X124293333Y-62945238D01*
X124340952Y-62897619D01*
X124864761Y-64183333D02*
X124912380Y-64088095D01*
X124912380Y-63897619D01*
X124864761Y-63802380D01*
X124769523Y-63754761D01*
X124388571Y-63754761D01*
X124293333Y-63802380D01*
X124245714Y-63897619D01*
X124245714Y-64088095D01*
X124293333Y-64183333D01*
X124388571Y-64230952D01*
X124483809Y-64230952D01*
X124579047Y-63754761D01*
X124912380Y-65897619D02*
X124912380Y-65421428D01*
X123912380Y-65421428D01*
X124912380Y-66230952D02*
X124245714Y-66230952D01*
X123912380Y-66230952D02*
X123960000Y-66183333D01*
X124007619Y-66230952D01*
X123960000Y-66278571D01*
X123912380Y-66230952D01*
X124007619Y-66230952D01*
X124864761Y-67135714D02*
X124912380Y-67040476D01*
X124912380Y-66850000D01*
X124864761Y-66754761D01*
X124817142Y-66707142D01*
X124721904Y-66659523D01*
X124436190Y-66659523D01*
X124340952Y-66707142D01*
X124293333Y-66754761D01*
X124245714Y-66850000D01*
X124245714Y-67040476D01*
X124293333Y-67135714D01*
X124864761Y-67945238D02*
X124912380Y-67850000D01*
X124912380Y-67659523D01*
X124864761Y-67564285D01*
X124769523Y-67516666D01*
X124388571Y-67516666D01*
X124293333Y-67564285D01*
X124245714Y-67659523D01*
X124245714Y-67850000D01*
X124293333Y-67945238D01*
X124388571Y-67992857D01*
X124483809Y-67992857D01*
X124579047Y-67516666D01*
X124245714Y-68421428D02*
X124912380Y-68421428D01*
X124340952Y-68421428D02*
X124293333Y-68469047D01*
X124245714Y-68564285D01*
X124245714Y-68707142D01*
X124293333Y-68802380D01*
X124388571Y-68850000D01*
X124912380Y-68850000D01*
X124864761Y-69278571D02*
X124912380Y-69373809D01*
X124912380Y-69564285D01*
X124864761Y-69659523D01*
X124769523Y-69707142D01*
X124721904Y-69707142D01*
X124626666Y-69659523D01*
X124579047Y-69564285D01*
X124579047Y-69421428D01*
X124531428Y-69326190D01*
X124436190Y-69278571D01*
X124388571Y-69278571D01*
X124293333Y-69326190D01*
X124245714Y-69421428D01*
X124245714Y-69564285D01*
X124293333Y-69659523D01*
X124864761Y-70516666D02*
X124912380Y-70421428D01*
X124912380Y-70230952D01*
X124864761Y-70135714D01*
X124769523Y-70088095D01*
X124388571Y-70088095D01*
X124293333Y-70135714D01*
X124245714Y-70230952D01*
X124245714Y-70421428D01*
X124293333Y-70516666D01*
X124388571Y-70564285D01*
X124483809Y-70564285D01*
X124579047Y-70088095D01*
X124864761Y-71040476D02*
X124912380Y-71040476D01*
X125007619Y-70992857D01*
X125055238Y-70945238D01*
X123912380Y-72088095D02*
X124912380Y-72421428D01*
X123912380Y-72754761D01*
X124864761Y-73469047D02*
X124912380Y-73373809D01*
X124912380Y-73183333D01*
X124864761Y-73088095D01*
X124769523Y-73040476D01*
X124388571Y-73040476D01*
X124293333Y-73088095D01*
X124245714Y-73183333D01*
X124245714Y-73373809D01*
X124293333Y-73469047D01*
X124388571Y-73516666D01*
X124483809Y-73516666D01*
X124579047Y-73040476D01*
X124912380Y-73945238D02*
X124245714Y-73945238D01*
X124436190Y-73945238D02*
X124340952Y-73992857D01*
X124293333Y-74040476D01*
X124245714Y-74135714D01*
X124245714Y-74230952D01*
X124864761Y-74516666D02*
X124912380Y-74611904D01*
X124912380Y-74802380D01*
X124864761Y-74897619D01*
X124769523Y-74945238D01*
X124721904Y-74945238D01*
X124626666Y-74897619D01*
X124579047Y-74802380D01*
X124579047Y-74659523D01*
X124531428Y-74564285D01*
X124436190Y-74516666D01*
X124388571Y-74516666D01*
X124293333Y-74564285D01*
X124245714Y-74659523D01*
X124245714Y-74802380D01*
X124293333Y-74897619D01*
X124912380Y-75373809D02*
X124245714Y-75373809D01*
X123912380Y-75373809D02*
X123960000Y-75326190D01*
X124007619Y-75373809D01*
X123960000Y-75421428D01*
X123912380Y-75373809D01*
X124007619Y-75373809D01*
X124912380Y-75992857D02*
X124864761Y-75897619D01*
X124817142Y-75850000D01*
X124721904Y-75802380D01*
X124436190Y-75802380D01*
X124340952Y-75850000D01*
X124293333Y-75897619D01*
X124245714Y-75992857D01*
X124245714Y-76135714D01*
X124293333Y-76230952D01*
X124340952Y-76278571D01*
X124436190Y-76326190D01*
X124721904Y-76326190D01*
X124817142Y-76278571D01*
X124864761Y-76230952D01*
X124912380Y-76135714D01*
X124912380Y-75992857D01*
X124245714Y-76754761D02*
X124912380Y-76754761D01*
X124340952Y-76754761D02*
X124293333Y-76802380D01*
X124245714Y-76897619D01*
X124245714Y-77040476D01*
X124293333Y-77135714D01*
X124388571Y-77183333D01*
X124912380Y-77183333D01*
X124007619Y-78373809D02*
X123960000Y-78421428D01*
X123912380Y-78516666D01*
X123912380Y-78754761D01*
X123960000Y-78850000D01*
X124007619Y-78897619D01*
X124102857Y-78945238D01*
X124198095Y-78945238D01*
X124340952Y-78897619D01*
X124912380Y-78326190D01*
X124912380Y-78945238D01*
X124817142Y-79373809D02*
X124864761Y-79421428D01*
X124912380Y-79373809D01*
X124864761Y-79326190D01*
X124817142Y-79373809D01*
X124912380Y-79373809D01*
X123912380Y-80040476D02*
X123912380Y-80135714D01*
X123960000Y-80230952D01*
X124007619Y-80278571D01*
X124102857Y-80326190D01*
X124293333Y-80373809D01*
X124531428Y-80373809D01*
X124721904Y-80326190D01*
X124817142Y-80278571D01*
X124864761Y-80230952D01*
X124912380Y-80135714D01*
X124912380Y-80040476D01*
X124864761Y-79945238D01*
X124817142Y-79897619D01*
X124721904Y-79850000D01*
X124531428Y-79802380D01*
X124293333Y-79802380D01*
X124102857Y-79850000D01*
X124007619Y-79897619D01*
X123960000Y-79945238D01*
X123912380Y-80040476D01*
X94432380Y-50278571D02*
X93432380Y-50278571D01*
X94432380Y-50707142D02*
X93908571Y-50707142D01*
X93813333Y-50659523D01*
X93765714Y-50564285D01*
X93765714Y-50421428D01*
X93813333Y-50326190D01*
X93860952Y-50278571D01*
X93765714Y-51040476D02*
X93765714Y-51421428D01*
X93432380Y-51183333D02*
X94289523Y-51183333D01*
X94384761Y-51230952D01*
X94432380Y-51326190D01*
X94432380Y-51421428D01*
X93765714Y-51611904D02*
X93765714Y-51992857D01*
X93432380Y-51754761D02*
X94289523Y-51754761D01*
X94384761Y-51802380D01*
X94432380Y-51897619D01*
X94432380Y-51992857D01*
X93765714Y-52326190D02*
X94765714Y-52326190D01*
X93813333Y-52326190D02*
X93765714Y-52421428D01*
X93765714Y-52611904D01*
X93813333Y-52707142D01*
X93860952Y-52754761D01*
X93956190Y-52802380D01*
X94241904Y-52802380D01*
X94337142Y-52754761D01*
X94384761Y-52707142D01*
X94432380Y-52611904D01*
X94432380Y-52421428D01*
X94384761Y-52326190D01*
X94384761Y-53183333D02*
X94432380Y-53278571D01*
X94432380Y-53469047D01*
X94384761Y-53564285D01*
X94289523Y-53611904D01*
X94241904Y-53611904D01*
X94146666Y-53564285D01*
X94099047Y-53469047D01*
X94099047Y-53326190D01*
X94051428Y-53230952D01*
X93956190Y-53183333D01*
X93908571Y-53183333D01*
X93813333Y-53230952D01*
X93765714Y-53326190D01*
X93765714Y-53469047D01*
X93813333Y-53564285D01*
X94337142Y-54040476D02*
X94384761Y-54088095D01*
X94432380Y-54040476D01*
X94384761Y-53992857D01*
X94337142Y-54040476D01*
X94432380Y-54040476D01*
X93813333Y-54040476D02*
X93860952Y-54088095D01*
X93908571Y-54040476D01*
X93860952Y-53992857D01*
X93813333Y-54040476D01*
X93908571Y-54040476D01*
X93384761Y-55230952D02*
X94670476Y-54373809D01*
X93384761Y-56278571D02*
X94670476Y-55421428D01*
X93765714Y-57040476D02*
X94575238Y-57040476D01*
X94670476Y-56992857D01*
X94718095Y-56945238D01*
X94765714Y-56850000D01*
X94765714Y-56707142D01*
X94718095Y-56611904D01*
X94384761Y-57040476D02*
X94432380Y-56945238D01*
X94432380Y-56754761D01*
X94384761Y-56659523D01*
X94337142Y-56611904D01*
X94241904Y-56564285D01*
X93956190Y-56564285D01*
X93860952Y-56611904D01*
X93813333Y-56659523D01*
X93765714Y-56754761D01*
X93765714Y-56945238D01*
X93813333Y-57040476D01*
X94432380Y-57516666D02*
X93765714Y-57516666D01*
X93432380Y-57516666D02*
X93480000Y-57469047D01*
X93527619Y-57516666D01*
X93480000Y-57564285D01*
X93432380Y-57516666D01*
X93527619Y-57516666D01*
X93765714Y-57850000D02*
X93765714Y-58230952D01*
X93432380Y-57992857D02*
X94289523Y-57992857D01*
X94384761Y-58040476D01*
X94432380Y-58135714D01*
X94432380Y-58230952D01*
X94432380Y-58564285D02*
X93432380Y-58564285D01*
X94432380Y-58992857D02*
X93908571Y-58992857D01*
X93813333Y-58945238D01*
X93765714Y-58850000D01*
X93765714Y-58707142D01*
X93813333Y-58611904D01*
X93860952Y-58564285D01*
X93765714Y-59897619D02*
X94432380Y-59897619D01*
X93765714Y-59469047D02*
X94289523Y-59469047D01*
X94384761Y-59516666D01*
X94432380Y-59611904D01*
X94432380Y-59754761D01*
X94384761Y-59850000D01*
X94337142Y-59897619D01*
X94432380Y-60373809D02*
X93432380Y-60373809D01*
X93813333Y-60373809D02*
X93765714Y-60469047D01*
X93765714Y-60659523D01*
X93813333Y-60754761D01*
X93860952Y-60802380D01*
X93956190Y-60850000D01*
X94241904Y-60850000D01*
X94337142Y-60802380D01*
X94384761Y-60754761D01*
X94432380Y-60659523D01*
X94432380Y-60469047D01*
X94384761Y-60373809D01*
X94337142Y-61278571D02*
X94384761Y-61326190D01*
X94432380Y-61278571D01*
X94384761Y-61230952D01*
X94337142Y-61278571D01*
X94432380Y-61278571D01*
X94384761Y-62183333D02*
X94432380Y-62088095D01*
X94432380Y-61897619D01*
X94384761Y-61802380D01*
X94337142Y-61754761D01*
X94241904Y-61707142D01*
X93956190Y-61707142D01*
X93860952Y-61754761D01*
X93813333Y-61802380D01*
X93765714Y-61897619D01*
X93765714Y-62088095D01*
X93813333Y-62183333D01*
X94432380Y-62754761D02*
X94384761Y-62659523D01*
X94337142Y-62611904D01*
X94241904Y-62564285D01*
X93956190Y-62564285D01*
X93860952Y-62611904D01*
X93813333Y-62659523D01*
X93765714Y-62754761D01*
X93765714Y-62897619D01*
X93813333Y-62992857D01*
X93860952Y-63040476D01*
X93956190Y-63088095D01*
X94241904Y-63088095D01*
X94337142Y-63040476D01*
X94384761Y-62992857D01*
X94432380Y-62897619D01*
X94432380Y-62754761D01*
X94432380Y-63516666D02*
X93765714Y-63516666D01*
X93860952Y-63516666D02*
X93813333Y-63564285D01*
X93765714Y-63659523D01*
X93765714Y-63802380D01*
X93813333Y-63897619D01*
X93908571Y-63945238D01*
X94432380Y-63945238D01*
X93908571Y-63945238D02*
X93813333Y-63992857D01*
X93765714Y-64088095D01*
X93765714Y-64230952D01*
X93813333Y-64326190D01*
X93908571Y-64373809D01*
X94432380Y-64373809D01*
X93384761Y-65564285D02*
X94670476Y-64707142D01*
X94432380Y-66326190D02*
X93908571Y-66326190D01*
X93813333Y-66278571D01*
X93765714Y-66183333D01*
X93765714Y-65992857D01*
X93813333Y-65897619D01*
X94384761Y-66326190D02*
X94432380Y-66230952D01*
X94432380Y-65992857D01*
X94384761Y-65897619D01*
X94289523Y-65850000D01*
X94194285Y-65850000D01*
X94099047Y-65897619D01*
X94051428Y-65992857D01*
X94051428Y-66230952D01*
X94003809Y-66326190D01*
X93765714Y-66659523D02*
X93765714Y-67040476D01*
X93432380Y-66802380D02*
X94289523Y-66802380D01*
X94384761Y-66850000D01*
X94432380Y-66945238D01*
X94432380Y-67040476D01*
X94432380Y-67516666D02*
X94384761Y-67421428D01*
X94337142Y-67373809D01*
X94241904Y-67326190D01*
X93956190Y-67326190D01*
X93860952Y-67373809D01*
X93813333Y-67421428D01*
X93765714Y-67516666D01*
X93765714Y-67659523D01*
X93813333Y-67754761D01*
X93860952Y-67802380D01*
X93956190Y-67850000D01*
X94241904Y-67850000D01*
X94337142Y-67802380D01*
X94384761Y-67754761D01*
X94432380Y-67659523D01*
X94432380Y-67516666D01*
X94432380Y-68421428D02*
X94384761Y-68326190D01*
X94337142Y-68278571D01*
X94241904Y-68230952D01*
X93956190Y-68230952D01*
X93860952Y-68278571D01*
X93813333Y-68326190D01*
X93765714Y-68421428D01*
X93765714Y-68564285D01*
X93813333Y-68659523D01*
X93860952Y-68707142D01*
X93956190Y-68754761D01*
X94241904Y-68754761D01*
X94337142Y-68707142D01*
X94384761Y-68659523D01*
X94432380Y-68564285D01*
X94432380Y-68421428D01*
X94432380Y-69183333D02*
X93765714Y-69183333D01*
X93860952Y-69183333D02*
X93813333Y-69230952D01*
X93765714Y-69326190D01*
X93765714Y-69469047D01*
X93813333Y-69564285D01*
X93908571Y-69611904D01*
X94432380Y-69611904D01*
X93908571Y-69611904D02*
X93813333Y-69659523D01*
X93765714Y-69754761D01*
X93765714Y-69897619D01*
X93813333Y-69992857D01*
X93908571Y-70040476D01*
X94432380Y-70040476D01*
X93765714Y-70516666D02*
X94432380Y-70516666D01*
X93860952Y-70516666D02*
X93813333Y-70564285D01*
X93765714Y-70659523D01*
X93765714Y-70802380D01*
X93813333Y-70897619D01*
X93908571Y-70945238D01*
X94432380Y-70945238D01*
X94384761Y-71802380D02*
X94432380Y-71707142D01*
X94432380Y-71516666D01*
X94384761Y-71421428D01*
X94289523Y-71373809D01*
X93908571Y-71373809D01*
X93813333Y-71421428D01*
X93765714Y-71516666D01*
X93765714Y-71707142D01*
X93813333Y-71802380D01*
X93908571Y-71849999D01*
X94003809Y-71849999D01*
X94099047Y-71373809D01*
X93765714Y-72135714D02*
X93765714Y-72516666D01*
X93432380Y-72278571D02*
X94289523Y-72278571D01*
X94384761Y-72326190D01*
X94432380Y-72421428D01*
X94432380Y-72516666D01*
X94432380Y-72849999D02*
X93765714Y-72849999D01*
X93860952Y-72849999D02*
X93813333Y-72897619D01*
X93765714Y-72992857D01*
X93765714Y-73135714D01*
X93813333Y-73230952D01*
X93908571Y-73278571D01*
X94432380Y-73278571D01*
X93908571Y-73278571D02*
X93813333Y-73326190D01*
X93765714Y-73421428D01*
X93765714Y-73564285D01*
X93813333Y-73659523D01*
X93908571Y-73707142D01*
X94432380Y-73707142D01*
X94432380Y-74611904D02*
X93908571Y-74611904D01*
X93813333Y-74564285D01*
X93765714Y-74469047D01*
X93765714Y-74278571D01*
X93813333Y-74183333D01*
X94384761Y-74611904D02*
X94432380Y-74516666D01*
X94432380Y-74278571D01*
X94384761Y-74183333D01*
X94289523Y-74135714D01*
X94194285Y-74135714D01*
X94099047Y-74183333D01*
X94051428Y-74278571D01*
X94051428Y-74516666D01*
X94003809Y-74611904D01*
X94432380Y-75088095D02*
X93765714Y-75088095D01*
X93956190Y-75088095D02*
X93860952Y-75135714D01*
X93813333Y-75183333D01*
X93765714Y-75278571D01*
X93765714Y-75373809D01*
X94384761Y-76135714D02*
X94432380Y-76040476D01*
X94432380Y-75849999D01*
X94384761Y-75754761D01*
X94337142Y-75707142D01*
X94241904Y-75659523D01*
X93956190Y-75659523D01*
X93860952Y-75707142D01*
X93813333Y-75754761D01*
X93765714Y-75849999D01*
X93765714Y-76040476D01*
X93813333Y-76135714D01*
X93384761Y-77278571D02*
X94670476Y-76421428D01*
X94384761Y-77564285D02*
X94432380Y-77707142D01*
X94432380Y-77945238D01*
X94384761Y-78040476D01*
X94337142Y-78088095D01*
X94241904Y-78135714D01*
X94146666Y-78135714D01*
X94051428Y-78088095D01*
X94003809Y-78040476D01*
X93956190Y-77945238D01*
X93908571Y-77754761D01*
X93860952Y-77659523D01*
X93813333Y-77611904D01*
X93718095Y-77564285D01*
X93622857Y-77564285D01*
X93527619Y-77611904D01*
X93480000Y-77659523D01*
X93432380Y-77754761D01*
X93432380Y-77992857D01*
X93480000Y-78135714D01*
X94432380Y-78707142D02*
X94384761Y-78611904D01*
X94337142Y-78564285D01*
X94241904Y-78516666D01*
X93956190Y-78516666D01*
X93860952Y-78564285D01*
X93813333Y-78611904D01*
X93765714Y-78707142D01*
X93765714Y-78849999D01*
X93813333Y-78945238D01*
X93860952Y-78992857D01*
X93956190Y-79040476D01*
X94241904Y-79040476D01*
X94337142Y-78992857D01*
X94384761Y-78945238D01*
X94432380Y-78849999D01*
X94432380Y-78707142D01*
X94432380Y-79611904D02*
X94384761Y-79516666D01*
X94289523Y-79469047D01*
X93432380Y-79469047D01*
X94384761Y-80373809D02*
X94432380Y-80278571D01*
X94432380Y-80088095D01*
X94384761Y-79992857D01*
X94289523Y-79945238D01*
X93908571Y-79945238D01*
X93813333Y-79992857D01*
X93765714Y-80088095D01*
X93765714Y-80278571D01*
X93813333Y-80373809D01*
X93908571Y-80421428D01*
X94003809Y-80421428D01*
X94099047Y-79945238D01*
X93765714Y-80849999D02*
X94432380Y-80849999D01*
X93860952Y-80849999D02*
X93813333Y-80897619D01*
X93765714Y-80992857D01*
X93765714Y-81135714D01*
X93813333Y-81230952D01*
X93908571Y-81278571D01*
X94432380Y-81278571D01*
X94432380Y-81897619D02*
X94384761Y-81802380D01*
X94337142Y-81754761D01*
X94241904Y-81707142D01*
X93956190Y-81707142D01*
X93860952Y-81754761D01*
X93813333Y-81802380D01*
X93765714Y-81897619D01*
X93765714Y-82040476D01*
X93813333Y-82135714D01*
X93860952Y-82183333D01*
X93956190Y-82230952D01*
X94241904Y-82230952D01*
X94337142Y-82183333D01*
X94384761Y-82135714D01*
X94432380Y-82040476D01*
X94432380Y-81897619D01*
X94432380Y-82659523D02*
X93765714Y-82659523D01*
X93432380Y-82659523D02*
X93480000Y-82611904D01*
X93527619Y-82659523D01*
X93480000Y-82707142D01*
X93432380Y-82659523D01*
X93527619Y-82659523D01*
X94432380Y-83564285D02*
X93432380Y-83564285D01*
X94384761Y-83564285D02*
X94432380Y-83469047D01*
X94432380Y-83278571D01*
X94384761Y-83183333D01*
X94337142Y-83135714D01*
X94241904Y-83088095D01*
X93956190Y-83088095D01*
X93860952Y-83135714D01*
X93813333Y-83183333D01*
X93765714Y-83278571D01*
X93765714Y-83469047D01*
X93813333Y-83564285D01*
X94051428Y-84040476D02*
X94051428Y-84802380D01*
X93765714Y-85278571D02*
X94765714Y-85278571D01*
X93813333Y-85278571D02*
X93765714Y-85373809D01*
X93765714Y-85564285D01*
X93813333Y-85659523D01*
X93860952Y-85707142D01*
X93956190Y-85754761D01*
X94241904Y-85754761D01*
X94337142Y-85707142D01*
X94384761Y-85659523D01*
X94432380Y-85564285D01*
X94432380Y-85373809D01*
X94384761Y-85278571D01*
X93765714Y-86611904D02*
X94432380Y-86611904D01*
X93765714Y-86183333D02*
X94289523Y-86183333D01*
X94384761Y-86230952D01*
X94432380Y-86326190D01*
X94432380Y-86469047D01*
X94384761Y-86564285D01*
X94337142Y-86611904D01*
X94432380Y-87230952D02*
X94384761Y-87135714D01*
X94289523Y-87088095D01*
X93432380Y-87088095D01*
X94384761Y-87564285D02*
X94432380Y-87659523D01*
X94432380Y-87849999D01*
X94384761Y-87945238D01*
X94289523Y-87992857D01*
X94241904Y-87992857D01*
X94146666Y-87945238D01*
X94099047Y-87849999D01*
X94099047Y-87707142D01*
X94051428Y-87611904D01*
X93956190Y-87564285D01*
X93908571Y-87564285D01*
X93813333Y-87611904D01*
X93765714Y-87707142D01*
X93765714Y-87849999D01*
X93813333Y-87945238D01*
X94384761Y-88802380D02*
X94432380Y-88707142D01*
X94432380Y-88516666D01*
X94384761Y-88421428D01*
X94289523Y-88373809D01*
X93908571Y-88373809D01*
X93813333Y-88421428D01*
X93765714Y-88516666D01*
X93765714Y-88707142D01*
X93813333Y-88802380D01*
X93908571Y-88849999D01*
X94003809Y-88849999D01*
X94099047Y-88373809D01*
X94432380Y-89278571D02*
X93765714Y-89278571D01*
X93956190Y-89278571D02*
X93860952Y-89326190D01*
X93813333Y-89373809D01*
X93765714Y-89469047D01*
X93765714Y-89564285D01*
X123101047Y-94004761D02*
X122958190Y-94052380D01*
X122720095Y-94052380D01*
X122624857Y-94004761D01*
X122577238Y-93957142D01*
X122529619Y-93861904D01*
X122529619Y-93766666D01*
X122577238Y-93671428D01*
X122624857Y-93623809D01*
X122720095Y-93576190D01*
X122910571Y-93528571D01*
X123005809Y-93480952D01*
X123053428Y-93433333D01*
X123101047Y-93338095D01*
X123101047Y-93242857D01*
X123053428Y-93147619D01*
X123005809Y-93100000D01*
X122910571Y-93052380D01*
X122672476Y-93052380D01*
X122529619Y-93100000D01*
X121958190Y-94052380D02*
X122053428Y-94004761D01*
X122101047Y-93957142D01*
X122148666Y-93861904D01*
X122148666Y-93576190D01*
X122101047Y-93480952D01*
X122053428Y-93433333D01*
X121958190Y-93385714D01*
X121815333Y-93385714D01*
X121720095Y-93433333D01*
X121672476Y-93480952D01*
X121624857Y-93576190D01*
X121624857Y-93861904D01*
X121672476Y-93957142D01*
X121720095Y-94004761D01*
X121815333Y-94052380D01*
X121958190Y-94052380D01*
X121053428Y-94052380D02*
X121148666Y-94004761D01*
X121196285Y-93909523D01*
X121196285Y-93052380D01*
X120291523Y-94004761D02*
X120386761Y-94052380D01*
X120577238Y-94052380D01*
X120672476Y-94004761D01*
X120720095Y-93909523D01*
X120720095Y-93528571D01*
X120672476Y-93433333D01*
X120577238Y-93385714D01*
X120386761Y-93385714D01*
X120291523Y-93433333D01*
X120243904Y-93528571D01*
X120243904Y-93623809D01*
X120720095Y-93719047D01*
X119815333Y-93385714D02*
X119815333Y-94052380D01*
X119815333Y-93480952D02*
X119767714Y-93433333D01*
X119672476Y-93385714D01*
X119529619Y-93385714D01*
X119434380Y-93433333D01*
X119386761Y-93528571D01*
X119386761Y-94052380D01*
X118767714Y-94052380D02*
X118862952Y-94004761D01*
X118910571Y-93957142D01*
X118958190Y-93861904D01*
X118958190Y-93576190D01*
X118910571Y-93480952D01*
X118862952Y-93433333D01*
X118767714Y-93385714D01*
X118624857Y-93385714D01*
X118529619Y-93433333D01*
X118482000Y-93480952D01*
X118434380Y-93576190D01*
X118434380Y-93861904D01*
X118482000Y-93957142D01*
X118529619Y-94004761D01*
X118624857Y-94052380D01*
X118767714Y-94052380D01*
X118005809Y-94052380D02*
X118005809Y-93385714D01*
X118005809Y-93052380D02*
X118053428Y-93100000D01*
X118005809Y-93147619D01*
X117958190Y-93100000D01*
X118005809Y-93052380D01*
X118005809Y-93147619D01*
X117101047Y-94052380D02*
X117101047Y-93052380D01*
X117101047Y-94004761D02*
X117196285Y-94052380D01*
X117386761Y-94052380D01*
X117482000Y-94004761D01*
X117529619Y-93957142D01*
X117577238Y-93861904D01*
X117577238Y-93576190D01*
X117529619Y-93480952D01*
X117482000Y-93433333D01*
X117386761Y-93385714D01*
X117196285Y-93385714D01*
X117101047Y-93433333D01*
X115862952Y-93385714D02*
X115862952Y-94385714D01*
X115862952Y-93433333D02*
X115767714Y-93385714D01*
X115577238Y-93385714D01*
X115482000Y-93433333D01*
X115434380Y-93480952D01*
X115386761Y-93576190D01*
X115386761Y-93861904D01*
X115434380Y-93957142D01*
X115482000Y-94004761D01*
X115577238Y-94052380D01*
X115767714Y-94052380D01*
X115862952Y-94004761D01*
X114529619Y-93385714D02*
X114529619Y-94052380D01*
X114958190Y-93385714D02*
X114958190Y-93909523D01*
X114910571Y-94004761D01*
X114815333Y-94052380D01*
X114672476Y-94052380D01*
X114577238Y-94004761D01*
X114529619Y-93957142D01*
X113910571Y-94052380D02*
X114005809Y-94004761D01*
X114053428Y-93909523D01*
X114053428Y-93052380D01*
X113577238Y-94004761D02*
X113482000Y-94052380D01*
X113291523Y-94052380D01*
X113196285Y-94004761D01*
X113148666Y-93909523D01*
X113148666Y-93861904D01*
X113196285Y-93766666D01*
X113291523Y-93719047D01*
X113434380Y-93719047D01*
X113529619Y-93671428D01*
X113577238Y-93576190D01*
X113577238Y-93528571D01*
X113529619Y-93433333D01*
X113434380Y-93385714D01*
X113291523Y-93385714D01*
X113196285Y-93433333D01*
X112339142Y-94004761D02*
X112434380Y-94052380D01*
X112624857Y-94052380D01*
X112720095Y-94004761D01*
X112767714Y-93909523D01*
X112767714Y-93528571D01*
X112720095Y-93433333D01*
X112624857Y-93385714D01*
X112434380Y-93385714D01*
X112339142Y-93433333D01*
X112291523Y-93528571D01*
X112291523Y-93623809D01*
X112767714Y-93719047D01*
X111862952Y-94052380D02*
X111862952Y-93385714D01*
X111862952Y-93576190D02*
X111815333Y-93480952D01*
X111767714Y-93433333D01*
X111672476Y-93385714D01*
X111577238Y-93385714D01*
X110624857Y-93385714D02*
X110243904Y-93385714D01*
X110482000Y-94052380D02*
X110482000Y-93195238D01*
X110434380Y-93100000D01*
X110339142Y-93052380D01*
X110243904Y-93052380D01*
X109767714Y-94052380D02*
X109862952Y-94004761D01*
X109910571Y-93957142D01*
X109958190Y-93861904D01*
X109958190Y-93576190D01*
X109910571Y-93480952D01*
X109862952Y-93433333D01*
X109767714Y-93385714D01*
X109624857Y-93385714D01*
X109529619Y-93433333D01*
X109482000Y-93480952D01*
X109434380Y-93576190D01*
X109434380Y-93861904D01*
X109482000Y-93957142D01*
X109529619Y-94004761D01*
X109624857Y-94052380D01*
X109767714Y-94052380D01*
X109005809Y-94052380D02*
X109005809Y-93385714D01*
X109005809Y-93576190D02*
X108958190Y-93480952D01*
X108910571Y-93433333D01*
X108815333Y-93385714D01*
X108720095Y-93385714D01*
X107101047Y-94052380D02*
X107672476Y-94052380D01*
X107386761Y-94052380D02*
X107386761Y-93052380D01*
X107482000Y-93195238D01*
X107577238Y-93290476D01*
X107672476Y-93338095D01*
X106720095Y-93147619D02*
X106672476Y-93100000D01*
X106577238Y-93052380D01*
X106339142Y-93052380D01*
X106243904Y-93100000D01*
X106196285Y-93147619D01*
X106148666Y-93242857D01*
X106148666Y-93338095D01*
X106196285Y-93480952D01*
X106767714Y-94052380D01*
X106148666Y-94052380D01*
X105862952Y-93052380D02*
X105529619Y-94052380D01*
X105196285Y-93052380D01*
X103815333Y-93052380D02*
X103815333Y-93766666D01*
X103862952Y-93909523D01*
X103958190Y-94004761D01*
X104101047Y-94052380D01*
X104196285Y-94052380D01*
X103005809Y-93528571D02*
X103339142Y-93528571D01*
X103339142Y-94052380D02*
X103339142Y-93052380D01*
X102862952Y-93052380D01*
X102482000Y-93671428D02*
X101720095Y-93671428D01*
X101053428Y-93052380D02*
X100958190Y-93052380D01*
X100862952Y-93100000D01*
X100815333Y-93147619D01*
X100767714Y-93242857D01*
X100720095Y-93433333D01*
X100720095Y-93671428D01*
X100767714Y-93861904D01*
X100815333Y-93957142D01*
X100862952Y-94004761D01*
X100958190Y-94052380D01*
X101053428Y-94052380D01*
X101148666Y-94004761D01*
X101196285Y-93957142D01*
X101243904Y-93861904D01*
X101291523Y-93671428D01*
X101291523Y-93433333D01*
X101243904Y-93242857D01*
X101196285Y-93147619D01*
X101148666Y-93100000D01*
X101053428Y-93052380D01*
X99815333Y-93052380D02*
X100291523Y-93052380D01*
X100339142Y-93528571D01*
X100291523Y-93480952D01*
X100196285Y-93433333D01*
X99958190Y-93433333D01*
X99862952Y-93480952D01*
X99815333Y-93528571D01*
X99767714Y-93623809D01*
X99767714Y-93861904D01*
X99815333Y-93957142D01*
X99862952Y-94004761D01*
X99958190Y-94052380D01*
X100196285Y-94052380D01*
X100291523Y-94004761D01*
X100339142Y-93957142D01*
X99434380Y-93052380D02*
X98815333Y-93052380D01*
X99148666Y-93433333D01*
X99005809Y-93433333D01*
X98910571Y-93480952D01*
X98862952Y-93528571D01*
X98815333Y-93623809D01*
X98815333Y-93861904D01*
X98862952Y-93957142D01*
X98910571Y-94004761D01*
X99005809Y-94052380D01*
X99291523Y-94052380D01*
X99386761Y-94004761D01*
X99434380Y-93957142D01*
X98196285Y-93052380D02*
X98101047Y-93052380D01*
X98005809Y-93100000D01*
X97958190Y-93147619D01*
X97910571Y-93242857D01*
X97862952Y-93433333D01*
X97862952Y-93671428D01*
X97910571Y-93861904D01*
X97958190Y-93957142D01*
X98005809Y-94004761D01*
X98101047Y-94052380D01*
X98196285Y-94052380D01*
X98291523Y-94004761D01*
X98339142Y-93957142D01*
X98386761Y-93861904D01*
X98434380Y-93671428D01*
X98434380Y-93433333D01*
X98386761Y-93242857D01*
X98339142Y-93147619D01*
X98291523Y-93100000D01*
X98196285Y-93052380D01*
X97101047Y-93528571D02*
X96958190Y-93576190D01*
X96910571Y-93623809D01*
X96862952Y-93719047D01*
X96862952Y-93861904D01*
X96910571Y-93957142D01*
X96958190Y-94004761D01*
X97053428Y-94052380D01*
X97434380Y-94052380D01*
X97434380Y-93052380D01*
X97101047Y-93052380D01*
X97005809Y-93100000D01*
X96958190Y-93147619D01*
X96910571Y-93242857D01*
X96910571Y-93338095D01*
X96958190Y-93433333D01*
X97005809Y-93480952D01*
X97101047Y-93528571D01*
X97434380Y-93528571D01*
X116839142Y-94797619D02*
X116791523Y-94750000D01*
X116696285Y-94702380D01*
X116458190Y-94702380D01*
X116362952Y-94750000D01*
X116315333Y-94797619D01*
X116267714Y-94892857D01*
X116267714Y-94988095D01*
X116315333Y-95130952D01*
X116886761Y-95702380D01*
X116267714Y-95702380D01*
X115648666Y-94702380D02*
X115553428Y-94702380D01*
X115458190Y-94750000D01*
X115410571Y-94797619D01*
X115362952Y-94892857D01*
X115315333Y-95083333D01*
X115315333Y-95321428D01*
X115362952Y-95511904D01*
X115410571Y-95607142D01*
X115458190Y-95654761D01*
X115553428Y-95702380D01*
X115648666Y-95702380D01*
X115743904Y-95654761D01*
X115791523Y-95607142D01*
X115839142Y-95511904D01*
X115886761Y-95321428D01*
X115886761Y-95083333D01*
X115839142Y-94892857D01*
X115791523Y-94797619D01*
X115743904Y-94750000D01*
X115648666Y-94702380D01*
X114934380Y-94797619D02*
X114886761Y-94750000D01*
X114791523Y-94702380D01*
X114553428Y-94702380D01*
X114458190Y-94750000D01*
X114410571Y-94797619D01*
X114362952Y-94892857D01*
X114362952Y-94988095D01*
X114410571Y-95130952D01*
X114982000Y-95702380D01*
X114362952Y-95702380D01*
X113410571Y-95702380D02*
X113982000Y-95702380D01*
X113696285Y-95702380D02*
X113696285Y-94702380D01*
X113791523Y-94845238D01*
X113886761Y-94940476D01*
X113982000Y-94988095D01*
X112982000Y-95321428D02*
X112220095Y-95321428D01*
X111553428Y-94702380D02*
X111458190Y-94702380D01*
X111362952Y-94750000D01*
X111315333Y-94797619D01*
X111267714Y-94892857D01*
X111220095Y-95083333D01*
X111220095Y-95321428D01*
X111267714Y-95511904D01*
X111315333Y-95607142D01*
X111362952Y-95654761D01*
X111458190Y-95702380D01*
X111553428Y-95702380D01*
X111648666Y-95654761D01*
X111696285Y-95607142D01*
X111743904Y-95511904D01*
X111791523Y-95321428D01*
X111791523Y-95083333D01*
X111743904Y-94892857D01*
X111696285Y-94797619D01*
X111648666Y-94750000D01*
X111553428Y-94702380D01*
X110648666Y-95130952D02*
X110743904Y-95083333D01*
X110791523Y-95035714D01*
X110839142Y-94940476D01*
X110839142Y-94892857D01*
X110791523Y-94797619D01*
X110743904Y-94750000D01*
X110648666Y-94702380D01*
X110458190Y-94702380D01*
X110362952Y-94750000D01*
X110315333Y-94797619D01*
X110267714Y-94892857D01*
X110267714Y-94940476D01*
X110315333Y-95035714D01*
X110362952Y-95083333D01*
X110458190Y-95130952D01*
X110648666Y-95130952D01*
X110743904Y-95178571D01*
X110791523Y-95226190D01*
X110839142Y-95321428D01*
X110839142Y-95511904D01*
X110791523Y-95607142D01*
X110743904Y-95654761D01*
X110648666Y-95702380D01*
X110458190Y-95702380D01*
X110362952Y-95654761D01*
X110315333Y-95607142D01*
X110267714Y-95511904D01*
X110267714Y-95321428D01*
X110315333Y-95226190D01*
X110362952Y-95178571D01*
X110458190Y-95130952D01*
X109839142Y-95321428D02*
X109077238Y-95321428D01*
X108410571Y-94702380D02*
X108315333Y-94702380D01*
X108220095Y-94750000D01*
X108172476Y-94797619D01*
X108124857Y-94892857D01*
X108077238Y-95083333D01*
X108077238Y-95321428D01*
X108124857Y-95511904D01*
X108172476Y-95607142D01*
X108220095Y-95654761D01*
X108315333Y-95702380D01*
X108410571Y-95702380D01*
X108505809Y-95654761D01*
X108553428Y-95607142D01*
X108601047Y-95511904D01*
X108648666Y-95321428D01*
X108648666Y-95083333D01*
X108601047Y-94892857D01*
X108553428Y-94797619D01*
X108505809Y-94750000D01*
X108410571Y-94702380D01*
X107220095Y-94702380D02*
X107410571Y-94702380D01*
X107505809Y-94750000D01*
X107553428Y-94797619D01*
X107648666Y-94940476D01*
X107696285Y-95130952D01*
X107696285Y-95511904D01*
X107648666Y-95607142D01*
X107601047Y-95654761D01*
X107505809Y-95702380D01*
X107315333Y-95702380D01*
X107220095Y-95654761D01*
X107172476Y-95607142D01*
X107124857Y-95511904D01*
X107124857Y-95273809D01*
X107172476Y-95178571D01*
X107220095Y-95130952D01*
X107315333Y-95083333D01*
X107505809Y-95083333D01*
X107601047Y-95130952D01*
X107648666Y-95178571D01*
X107696285Y-95273809D01*
X106077238Y-94702380D02*
X105743904Y-95702380D01*
X105410571Y-94702380D01*
X104553428Y-95702380D02*
X105124857Y-95702380D01*
X104839142Y-95702380D02*
X104839142Y-94702380D01*
X104934380Y-94845238D01*
X105029619Y-94940476D01*
X105124857Y-94988095D01*
X104124857Y-95607142D02*
X104077238Y-95654761D01*
X104124857Y-95702380D01*
X104172476Y-95654761D01*
X104124857Y-95607142D01*
X104124857Y-95702380D01*
X103458190Y-94702380D02*
X103362952Y-94702380D01*
X103267714Y-94750000D01*
X103220095Y-94797619D01*
X103172476Y-94892857D01*
X103124857Y-95083333D01*
X103124857Y-95321428D01*
X103172476Y-95511904D01*
X103220095Y-95607142D01*
X103267714Y-95654761D01*
X103362952Y-95702380D01*
X103458190Y-95702380D01*
X103553428Y-95654761D01*
X103601047Y-95607142D01*
X103648666Y-95511904D01*
X103696285Y-95321428D01*
X103696285Y-95083333D01*
X103648666Y-94892857D01*
X103601047Y-94797619D01*
X103553428Y-94750000D01*
X103458190Y-94702380D01*
X118315333Y-97352380D02*
X118315333Y-96352380D01*
X117886761Y-97352380D02*
X117886761Y-96828571D01*
X117934380Y-96733333D01*
X118029619Y-96685714D01*
X118172476Y-96685714D01*
X118267714Y-96733333D01*
X118315333Y-96780952D01*
X117553428Y-96685714D02*
X117172476Y-96685714D01*
X117410571Y-96352380D02*
X117410571Y-97209523D01*
X117362952Y-97304761D01*
X117267714Y-97352380D01*
X117172476Y-97352380D01*
X116982000Y-96685714D02*
X116601047Y-96685714D01*
X116839142Y-96352380D02*
X116839142Y-97209523D01*
X116791523Y-97304761D01*
X116696285Y-97352380D01*
X116601047Y-97352380D01*
X116267714Y-96685714D02*
X116267714Y-97685714D01*
X116267714Y-96733333D02*
X116172476Y-96685714D01*
X115982000Y-96685714D01*
X115886761Y-96733333D01*
X115839142Y-96780952D01*
X115791523Y-96876190D01*
X115791523Y-97161904D01*
X115839142Y-97257142D01*
X115886761Y-97304761D01*
X115982000Y-97352380D01*
X116172476Y-97352380D01*
X116267714Y-97304761D01*
X115410571Y-97304761D02*
X115315333Y-97352380D01*
X115124857Y-97352380D01*
X115029619Y-97304761D01*
X114982000Y-97209523D01*
X114982000Y-97161904D01*
X115029619Y-97066666D01*
X115124857Y-97019047D01*
X115267714Y-97019047D01*
X115362952Y-96971428D01*
X115410571Y-96876190D01*
X115410571Y-96828571D01*
X115362952Y-96733333D01*
X115267714Y-96685714D01*
X115124857Y-96685714D01*
X115029619Y-96733333D01*
X114553428Y-97257142D02*
X114505809Y-97304761D01*
X114553428Y-97352380D01*
X114601047Y-97304761D01*
X114553428Y-97257142D01*
X114553428Y-97352380D01*
X114553428Y-96733333D02*
X114505809Y-96780952D01*
X114553428Y-96828571D01*
X114601047Y-96780952D01*
X114553428Y-96733333D01*
X114553428Y-96828571D01*
X113362952Y-96304761D02*
X114220095Y-97590476D01*
X112315333Y-96304761D02*
X113172476Y-97590476D01*
X111553428Y-97352380D02*
X111553428Y-96828571D01*
X111601047Y-96733333D01*
X111696285Y-96685714D01*
X111886761Y-96685714D01*
X111982000Y-96733333D01*
X111553428Y-97304761D02*
X111648666Y-97352380D01*
X111886761Y-97352380D01*
X111982000Y-97304761D01*
X112029619Y-97209523D01*
X112029619Y-97114285D01*
X111982000Y-97019047D01*
X111886761Y-96971428D01*
X111648666Y-96971428D01*
X111553428Y-96923809D01*
X111220095Y-96685714D02*
X110839142Y-96685714D01*
X111077238Y-96352380D02*
X111077238Y-97209523D01*
X111029619Y-97304761D01*
X110934380Y-97352380D01*
X110839142Y-97352380D01*
X110362952Y-97352380D02*
X110458190Y-97304761D01*
X110505809Y-97257142D01*
X110553428Y-97161904D01*
X110553428Y-96876190D01*
X110505809Y-96780952D01*
X110458190Y-96733333D01*
X110362952Y-96685714D01*
X110220095Y-96685714D01*
X110124857Y-96733333D01*
X110077238Y-96780952D01*
X110029619Y-96876190D01*
X110029619Y-97161904D01*
X110077238Y-97257142D01*
X110124857Y-97304761D01*
X110220095Y-97352380D01*
X110362952Y-97352380D01*
X109458190Y-97352380D02*
X109553428Y-97304761D01*
X109601047Y-97257142D01*
X109648666Y-97161904D01*
X109648666Y-96876190D01*
X109601047Y-96780952D01*
X109553428Y-96733333D01*
X109458190Y-96685714D01*
X109315333Y-96685714D01*
X109220095Y-96733333D01*
X109172476Y-96780952D01*
X109124857Y-96876190D01*
X109124857Y-97161904D01*
X109172476Y-97257142D01*
X109220095Y-97304761D01*
X109315333Y-97352380D01*
X109458190Y-97352380D01*
X108696285Y-97352380D02*
X108696285Y-96685714D01*
X108696285Y-96780952D02*
X108648666Y-96733333D01*
X108553428Y-96685714D01*
X108410571Y-96685714D01*
X108315333Y-96733333D01*
X108267714Y-96828571D01*
X108267714Y-97352380D01*
X108267714Y-96828571D02*
X108220095Y-96733333D01*
X108124857Y-96685714D01*
X107982000Y-96685714D01*
X107886761Y-96733333D01*
X107839142Y-96828571D01*
X107839142Y-97352380D01*
X107362952Y-96685714D02*
X107362952Y-97352380D01*
X107362952Y-96780952D02*
X107315333Y-96733333D01*
X107220095Y-96685714D01*
X107077238Y-96685714D01*
X106982000Y-96733333D01*
X106934380Y-96828571D01*
X106934380Y-97352380D01*
X106077238Y-97304761D02*
X106172476Y-97352380D01*
X106362952Y-97352380D01*
X106458190Y-97304761D01*
X106505809Y-97209523D01*
X106505809Y-96828571D01*
X106458190Y-96733333D01*
X106362952Y-96685714D01*
X106172476Y-96685714D01*
X106077238Y-96733333D01*
X106029619Y-96828571D01*
X106029619Y-96923809D01*
X106505809Y-97019047D01*
X105743904Y-96685714D02*
X105362952Y-96685714D01*
X105601047Y-96352380D02*
X105601047Y-97209523D01*
X105553428Y-97304761D01*
X105458190Y-97352380D01*
X105362952Y-97352380D01*
X105029619Y-97257142D02*
X104982000Y-97304761D01*
X105029619Y-97352380D01*
X105077238Y-97304761D01*
X105029619Y-97257142D01*
X105029619Y-97352380D01*
X104553428Y-96685714D02*
X104553428Y-97352380D01*
X104553428Y-96780952D02*
X104505809Y-96733333D01*
X104410571Y-96685714D01*
X104267714Y-96685714D01*
X104172476Y-96733333D01*
X104124857Y-96828571D01*
X104124857Y-97352380D01*
X103267714Y-97304761D02*
X103362952Y-97352380D01*
X103553428Y-97352380D01*
X103648666Y-97304761D01*
X103696285Y-97209523D01*
X103696285Y-96828571D01*
X103648666Y-96733333D01*
X103553428Y-96685714D01*
X103362952Y-96685714D01*
X103267714Y-96733333D01*
X103220095Y-96828571D01*
X103220095Y-96923809D01*
X103696285Y-97019047D01*
X102934380Y-96685714D02*
X102553428Y-96685714D01*
X102791523Y-96352380D02*
X102791523Y-97209523D01*
X102743904Y-97304761D01*
X102648666Y-97352380D01*
X102553428Y-97352380D01*
X101505809Y-96304761D02*
X102362952Y-97590476D01*
%LPC*%
D11*
X121920000Y-54610000D03*
D12*
X116840000Y-54610000D03*
D11*
X121920000Y-59690000D03*
D12*
X116840000Y-59690000D03*
D11*
X96520000Y-54610000D03*
D12*
X101600000Y-54610000D03*
D11*
X96520000Y-59690000D03*
D12*
X101600000Y-59690000D03*
D11*
X111760000Y-54610000D03*
D12*
X106680000Y-54610000D03*
D11*
X121920000Y-76200000D03*
D12*
X121920000Y-81280000D03*
D13*
X116840000Y-81280000D03*
D14*
X116840000Y-76200000D03*
D13*
X101600000Y-81280000D03*
D14*
X101600000Y-76200000D03*
D15*
X106680000Y-69850000D03*
X109220000Y-69850000D03*
D16*
X111760000Y-69850000D03*
D17*
X117682944Y-46562944D03*
X116980000Y-48260000D03*
X117682944Y-49957056D03*
X119380000Y-50660000D03*
X121077056Y-49957056D03*
X121780000Y-48260000D03*
X121077056Y-46562944D03*
X119380000Y-45860000D03*
D18*
X119380000Y-48260000D03*
D17*
X97362944Y-46562944D03*
X96660000Y-48260000D03*
X97362944Y-49957056D03*
X99060000Y-50660000D03*
X100757056Y-49957056D03*
X101460000Y-48260000D03*
X100757056Y-46562944D03*
X99060000Y-45860000D03*
D18*
X99060000Y-48260000D03*
D17*
X117682944Y-102442944D03*
X116980000Y-104140000D03*
X117682944Y-105837056D03*
X119380000Y-106540000D03*
X121077056Y-105837056D03*
X121780000Y-104140000D03*
X121077056Y-102442944D03*
X119380000Y-101740000D03*
D18*
X119380000Y-104140000D03*
D17*
X97362944Y-102442944D03*
X96660000Y-104140000D03*
X97362944Y-105837056D03*
X99060000Y-106540000D03*
X100757056Y-105837056D03*
X101460000Y-104140000D03*
X100757056Y-102442944D03*
X99060000Y-101740000D03*
D18*
X99060000Y-104140000D03*
D19*
X95955000Y-81300000D03*
X97155000Y-76200000D03*
D20*
X121920000Y-88900000D03*
D21*
X116840000Y-88900000D03*
D20*
X111760000Y-88900000D03*
D21*
X106680000Y-88900000D03*
D20*
X101600000Y-88900000D03*
D21*
X96520000Y-88900000D03*
D11*
X113030000Y-58420000D03*
X105410000Y-66040000D03*
X113030000Y-60960000D03*
X105410000Y-63500000D03*
X113030000Y-63500000D03*
X105410000Y-60960000D03*
X113030000Y-66040000D03*
D22*
X105410000Y-58420000D03*
D23*
X111470000Y-107390000D03*
X106970000Y-107390000D03*
X111470000Y-100890000D03*
X106970000Y-100890000D03*
D24*
X110490000Y-48260000D03*
D25*
X107950000Y-48260000D03*
D23*
X106760000Y-78740000D03*
D26*
X111760000Y-78740000D03*
D27*
X119380000Y-65797401D03*
D28*
X119380000Y-63797401D03*
D27*
X99060000Y-63742600D03*
D28*
X99060000Y-65742600D03*
D12*
X120610000Y-69850000D03*
X118110000Y-69850000D03*
X97830000Y-69850000D03*
X100330000Y-69850000D03*
M02*
